<svg xmlns="http://www.w3.org/2000/svg" width="65" height="64.965" viewBox="0 0 65 64.965">
  <g id="teaching" transform="translate(-0.01 0.041)">
    <path id="Path_1412" data-name="Path 1412" d="M267.7,251.594h-12.09a1.381,1.381,0,0,1-1.535-1.037,1.3,1.3,0,0,1,1.121-1.585,5.1,5.1,0,0,1,.728-.017h23.534a5.611,5.611,0,0,1,.73.015,1.285,1.285,0,0,1,1.156,1.336,1.262,1.262,0,0,1-1.147,1.263,4.851,4.851,0,0,1-.811.018Z" transform="translate(-229.342 -238.646)"/>
    <path id="Path_1413" data-name="Path 1413" d="M330.221,352.605h9.74c.929,0,1.485.451,1.553,1.2a1.331,1.331,0,0,1-1.484,1.43c-2.272.012-4.545,0-6.817,0H320.389c-.933,0-1.464-.354-1.612-1.04a1.331,1.331,0,0,1,1.461-1.589c2.867-.012,5.735,0,8.6,0Z" transform="translate(-284.313 -326.701)"/>
    <path id="Path_1414" data-name="Path 1414" d="M337.121,286.166h-9.255c-.987,0-1.568-.546-1.528-1.383a1.282,1.282,0,0,1,1.339-1.24c.728-.026,1.46-.008,2.191-.008,5.466,0,10.933-.009,16.4.015a1.8,1.8,0,0,1,1.248.381,1.869,1.869,0,0,1,.33,1.375c-.111.614-.673.864-1.306.862h-5.2Z" transform="translate(-290.762 -268.021)"/>
    <path id="Path_1415" data-name="Path 1415" d="M346.074,320.731h-8.349c-1.09,0-1.667-.469-1.655-1.327s.582-1.3,1.684-1.3h16.855c1.023,0,1.609.474,1.627,1.287s-.573,1.341-1.571,1.344Q350.368,320.737,346.074,320.731Z" transform="translate(-299.029 -297.389)"/>
    <path id="Path_1416" data-name="Path 1416" d="M505.752,350.966a1.309,1.309,0,1,1,.945-.4A1.307,1.307,0,0,1,505.752,350.966Z" transform="translate(-442.066 -323.083)"/>
    <path id="Path_1417" data-name="Path 1417" d="M103.027,243.859a4.923,4.923,0,0,1-4.619,1,4.221,4.221,0,0,1-3.192-4.188c-.012-4.006,0-8.012,0-12.018V227.8a17.144,17.144,0,0,1-1.935-.012,3.612,3.612,0,0,1-3.258-3.64q-.027-6.862,0-13.723a6.448,6.448,0,0,1,4.676-6.063c.953-.277,1.917-.516,2.894-.777a7.72,7.72,0,0,1,4.116-12.942v-3.532c0-2.759,1.573-4.345,4.307-4.346h20.972c.15-1.07-.289-2.573,1.391-2.558,1.61.02,1.231,1.451,1.321,2.558h21.124a3.918,3.918,0,0,1,4.181,4.149v14.209a4.906,4.906,0,0,1-.015.649,1.291,1.291,0,0,1-1.339,1.156,1.264,1.264,0,0,1-1.261-1.151,4.366,4.366,0,0,1-.017-.73V187.165c0-1.336-.418-1.764-1.732-1.764H106.069c-1.285,0-1.72.429-1.725,1.689v3.543a7.835,7.835,0,0,1,5.686,4.629,7.432,7.432,0,0,1-.837,7.362c2.373-1.1,4.515-2.107,6.665-3.1q1.434-.668,2.859-1.354a3.938,3.938,0,1,1,3.356,7.124c-3.5,1.628-7,3.269-10.519,4.868a1.058,1.058,0,0,0-.73,1.151c.036,2.352.015,4.7.015,7.181h39.7c1.437,0,1.831-.393,1.833-1.825v-4.384c0-1.008.512-1.594,1.338-1.579.793.014,1.285.587,1.291,1.544q.014,2.436,0,4.873a3.905,3.905,0,0,1-4,4q-11.04.009-22.082,0h-1.032V223.3c0,2.787.027,5.576-.018,8.363a1.925,1.925,0,0,0,.764,1.646c3.506,3.019,6.99,6.066,10.477,9.108a4.013,4.013,0,0,1,.733.752,1.3,1.3,0,0,1-1.7,1.834,3.612,3.612,0,0,1-.641-.489l-8.817-7.674c-.215-.187-.442-.36-.793-.646v3.461c0,1.029-.474,1.6-1.3,1.615s-1.327-.572-1.335-1.582c-.008-1.1,0-2.2,0-3.461-.331.263-.558.43-.771.616q-4.382,3.8-8.76,7.616c-.1.089-.2.179-.309.265a1.337,1.337,0,0,1-2.009-.035,1.293,1.293,0,0,1,.259-1.931c1.272-1.135,2.558-2.245,3.851-3.365,2.387-2.08,4.768-4.169,7.166-6.235a1.458,1.458,0,0,0,.582-1.234c-.027-3.329-.014-6.658-.014-9.987v-.76H110.838v3.475c0,1.078-.489,1.68-1.332,1.669s-1.3-.6-1.3-1.7c0-4.871.015-9.743-.017-14.614a1.685,1.685,0,0,1,1.142-1.734c3.88-1.782,7.741-3.6,11.613-5.4a1.148,1.148,0,0,0,.752-1.553,1.165,1.165,0,0,0-1.783-.743c-3.389,1.561-6.8,3.081-10.139,4.736a7.121,7.121,0,0,1-4.4.712,21.389,21.389,0,0,0-10,.944,3.738,3.738,0,0,0-2.709,3.553c-.03,4.465-.018,8.932-.008,13.394a1.14,1.14,0,0,0,1.315,1.279c.852-.018,1.236-.438,1.237-1.354.009-3.735,0-7.47,0-11.206a6.212,6.212,0,0,1,.014-.73,1.294,1.294,0,0,1,1.333-1.174,1.272,1.272,0,0,1,1.272,1.144,4.684,4.684,0,0,1,.02.81v27.608c0,1.5.789,2.238,2.211,2.1a1.722,1.722,0,0,0,1.645-1.932c.011-3.01,0-6.009,0-9.013v-7.064c0-1.081.489-1.669,1.345-1.655.82.02,1.284.6,1.285,1.631v16c0,1.336.641,2.021,1.869,2.044a1.762,1.762,0,0,0,1.986-1.928c.017-1.488,0-2.977,0-4.465,0-1.3.439-1.92,1.336-1.907s1.3.622,1.3,1.947c0,1.434-.018,2.868,0,4.3a4.183,4.183,0,0,1-2.295,4.152,4.769,4.769,0,0,1-5.078-.315C103.336,244.093,103.21,243.993,103.027,243.859Zm-.021-40.766a4.981,4.981,0,0,0,5-4.9,4.983,4.983,0,0,0-9.965-.038A4.992,4.992,0,0,0,103.006,203.093Z" transform="translate(-90 -180.25)"/>
    <path id="Path_1418" data-name="Path 1418" d="M213.571,505.068a1.311,1.311,0,1,1-1.3-1.324A1.311,1.311,0,0,1,213.571,505.068Z" transform="translate(-192.739 -455.096)"/>
  </g>
</svg>
