<svg xmlns="http://www.w3.org/2000/svg" width="65" height="60.972" viewBox="0 0 65 60.972">
  <g id="video-call" transform="translate(0.023 -0.005)">
    <path id="Path_1423" data-name="Path 1423" d="M67.817,298.218c.186-.5.876-.617,1.365-.576.351.031.707.007,1.122.007V264.215a6.213,6.213,0,0,1,5.288-6.317,4.393,4.393,0,0,1,.757-.057q3.074-.011,6.151,0c.718,0,1.161.383,1.157.97s-.449.97-1.164.973H76.658a4.286,4.286,0,0,0-4.406,4.414q-.012,16.429,0,32.858c0,.166.015.333.027.594H73.1c6.6,0,13.192.012,19.786-.014a2.452,2.452,0,0,1,2.393,1.208,1.489,1.489,0,0,0,1.4.707h7.041a1.6,1.6,0,0,0,1.479-.809,2.231,2.231,0,0,1,2.126-1.1q10.019.025,20.041.01h.914V264.39a4.314,4.314,0,0,0-4.6-4.608c-2.2,0-4.4.023-6.6-.026a1.486,1.486,0,0,1-1.036-.539.891.891,0,0,1,.711-1.365,77.636,77.636,0,0,1,8.111.075c3.229.314,5.353,3.018,5.356,6.347q.01,16.238,0,32.476v.819c0,.081.875.072.955.072a2.3,2.3,0,0,1,1.167.2c.457.273.39.682.39,1.141v1.043a8.9,8.9,0,0,1-.053,1.759,6.755,6.755,0,0,1-2.286,3.848,6.974,6.974,0,0,1-4.079,1.479c-.136.007-.273.01-.409.01H80.325c-2.071,0-4.143.008-6.214-.011a6.286,6.286,0,0,1-4.152-1.637,6.55,6.55,0,0,1-1.884-2.8,6.9,6.9,0,0,1-.311-2.137c0-.363,0-.727.008-1.092s-.035-.714,0-1.053A.834.834,0,0,1,67.817,298.218Zm1.82,1.39a18.43,18.43,0,0,0,.273,2.228,4.5,4.5,0,0,0,4.429,3.331q25.944.008,51.886,0h.254a4.6,4.6,0,0,0,4.23-5.533c-.143-.007-.291-.022-.437-.022q-11.386,0-22.772-.01a.891.891,0,0,0-.827.441,3.279,3.279,0,0,1-2.807,1.464q-3.684.026-7.358,0a3.182,3.182,0,0,1-2.715-1.385,1.1,1.1,0,0,0-1.044-.52q-11.133.021-22.264.01Z" transform="translate(-67.78 -246.147)"/>
    <path id="Path_1424" data-name="Path 1424" d="M118.1,319.547c.3.018.532.041.759.041,4.08,0,8.16-.012,12.24.015.641,0,.836-.169.8-.819-.057-1.075-.026-2.156-.01-3.234a7.546,7.546,0,0,1,1.938-4.967c.251-.287.523-.554.791-.819.716-.722.718-.72.273-1.652a7.922,7.922,0,1,1,14.481-6.419,2.511,2.511,0,0,1,.2.665.9.9,0,0,1-.671,1.019.884.884,0,0,1-1.092-.409,3.542,3.542,0,0,1-.263-.574,5.961,5.961,0,1,0,.087,4.457c.09-.236.151-.486.257-.715a.947.947,0,0,1,1.2-.546.865.865,0,0,1,.621,1.092,10.371,10.371,0,0,1-.738,1.876.565.565,0,0,0,.13.808,8.3,8.3,0,0,1,2.413,3.138,13.62,13.62,0,0,1,.682,3.061,23.978,23.978,0,0,1,.016,3.358c-.02.546.181.67.689.669,4.143-.018,8.287-.01,12.43-.012.2,0,.409-.03.675-.05V290.707c0-.843,0-.843-.827-.845H158.84c-.791,0-1.253-.514-1.092-1.191a.971.971,0,0,1,1.092-.757c2.3,0,4.609-.01,6.913.008a2.128,2.128,0,0,1,2.2,2.205q.011,15.129,0,30.255c0,.8-.355,1.153-1.154,1.182H117.651c-.169,0-.34.01-.506,0a.968.968,0,0,1-.982-1.026q-.025-2.183,0-4.376a.966.966,0,1,1,1.931.007C118.112,317.261,118.1,318.353,118.1,319.547Zm29.36-8.972a8.048,8.048,0,0,1-10.824-.014c-1.175,1.048-2.373,2.144-2.593,3.777-.229,1.7-.2,3.433-.291,5.2h16.53c0-1.139-.037-2.234.007-3.325A6.592,6.592,0,0,0,147.458,310.575Z" transform="translate(-109.57 -272.166)"/>
    <path id="Path_1425" data-name="Path 1425" d="M212.283,172.555h9.766a4.18,4.18,0,0,1,4.481,4.474q.014,6.849,0,13.7a4.177,4.177,0,0,1-4.477,4.477H202.4a4.133,4.133,0,0,1-4.418-4.386q-.011-3.933,0-7.864c0-.778.439-1.216,1.1-1.135.539.065.841.461.842,1.148v7.673c0,1.774.83,2.613,2.586,2.614h19.464a2.237,2.237,0,0,0,2.563-2.557V177.062a2.234,2.234,0,0,0-2.565-2.556H202.509c-1.755,0-2.582.839-2.583,2.616,0,.508.012,1.015,0,1.521a1,1,0,0,1-.965,1.048.977.977,0,0,1-.978-1.032,16.2,16.2,0,0,1,.143-2.962,3.954,3.954,0,0,1,3.882-3.13c3.424-.025,6.847-.007,10.271-.007Z" transform="translate(-180.234 -172.55)"/>
    <path id="Path_1426" data-name="Path 1426" d="M116.176,300.926v-10.59A2.184,2.184,0,0,1,118.6,287.9q2.821-.01,5.642,0c.776,0,1.228.364,1.228.966s-.452.978-1.216.981c-1.8,0-3.594.023-5.39-.011-.585-.011-.755.164-.753.75q.029,10.371.012,20.741v.57c-.016.7-.42,1.157-1,1.135s-.937-.456-.939-1.133Q116.171,306.41,116.176,300.926Z" transform="translate(-109.591 -272.152)"/>
    <path id="Path_1427" data-name="Path 1427" d="M268.395,212a5.705,5.705,0,0,1,1.077.4q2.856,1.638,5.678,3.328a2.471,2.471,0,0,1,0,4.423q-2.816,1.7-5.675,3.335a2.456,2.456,0,0,1-3.788-2.19q-.033-3.421,0-6.843A2.535,2.535,0,0,1,268.395,212Zm-.761,5.909c0,1.077-.007,2.153,0,3.23,0,.714.355.936.955.587q2.767-1.6,5.511-3.234c.566-.337.566-.767,0-1.1q-2.747-1.637-5.511-3.231c-.6-.349-.955-.128-.955.587-.008,1.06,0,2.116,0,3.171Z" transform="translate(-238.687 -206.613)"/>
  </g>
</svg>
