<svg xmlns="http://www.w3.org/2000/svg" width="60" height="66.195" viewBox="0 0 60 66.195">
  <g id="learning" transform="translate(0.013)">
    <path id="Path_1390" data-name="Path 1390" d="M191.937,334.807a2.185,2.185,0,0,0-2.382-2.367h-3.694c-.029-.26-.05-.472-.079-.69A1.932,1.932,0,0,0,183.926,330c-2.629-.031-5.258-.026-7.887,0a.946.946,0,0,0-.886,1.36,1.08,1.08,0,0,0,1.127.576c2.284-.009,4.568,0,6.852,0h.733v11.332a4.615,4.615,0,0,0,.033.708.95.95,0,0,0,1.876,0,4.211,4.211,0,0,0,.034-.708v-8.893h3.3c.886,0,.888,0,.888.862v32.713c0,2.955-1.6,4.568-4.541,4.568h-47c-2.944,0-4.56-1.612-4.56-4.549V335.259a1.487,1.487,0,0,1,.016-.517c.059-.145.219-.345.345-.355,1.307-.026,2.613-.017,3.965-.017v32.787c0,1.953.946,2.9,2.887,2.9h41.751c2,0,2.941-.929,2.941-2.91V348.463a4.7,4.7,0,0,0-.012-.517.958.958,0,0,0-1.915-.017,6.182,6.182,0,0,0-.016.645v13.351H168.271a7.186,7.186,0,0,0-4.849,1.813c-.119.1-.246.2-.445.355V351.725a.957.957,0,0,0-.957-1.069.968.968,0,0,0-.977,1.05v12.437a6.2,6.2,0,0,0-3.549-1.972c-2.051-.186-4.12-.188-6.182-.2a.847.847,0,0,0-.8.995.888.888,0,0,0,.921.895c.279.016.56,0,.841.009,1.5.033,3.024-.045,4.515.128a4.844,4.844,0,0,1,4.1,4.094c-.172,0-.345.026-.517.026H141.046c-.129,0-.288.041-.381-.019-.172-.119-.455-.291-.46-.446-.038-1.239-.021-2.481-.021-3.792h6.971c.822,0,1.319-.61,1.06-1.288a1.069,1.069,0,0,0-1.15-.65h-6.859v-30h7.664a.983.983,0,0,0,1.093-.943.971.971,0,0,0-1.048-.989c-2.586-.012-5.171-.019-7.757,0a1.948,1.948,0,0,0-1.919,1.757c-.029.212-.048.424-.078.69h-3.568c-1.844,0-2.641.791-2.641,2.627v28.96c0,1.508-.043,3.018.012,4.525A5.85,5.85,0,0,0,135.654,374a12.7,12.7,0,0,0,1.465.457h49.646a1.119,1.119,0,0,1,.229-.1,5.944,5.944,0,0,0,4.93-6.006Q191.937,351.575,191.937,334.807Zm-24.823,29.186a6.9,6.9,0,0,1,1.219-.119q7.468-.01,14.932,0c.172,0,.345.019.593.035v3.62a.55.55,0,0,1-.617.593h-19.6c-.172,0-.345-.017-.517-.026A5.026,5.026,0,0,1,167.114,363.993Z" transform="translate(-131.95 -308.26)"/>
    <path id="Path_1391" data-name="Path 1391" d="M241.427,204c.774.172,1.551.3,2.319.507a13.887,13.887,0,0,1,7.968,20.944q-3,4.634-5.968,9.293a2.306,2.306,0,0,0-.329,1.133,2.723,2.723,0,0,1-1.193,2.438.769.769,0,0,0-.252.526c-.043.517,0,1.034-.05,1.551a3.048,3.048,0,0,1-2.946,2.81,17.306,17.306,0,0,1-1.745,0,3.076,3.076,0,0,1-3.025-2.874,4.24,4.24,0,0,1-.021-.645,1.679,1.679,0,0,0-.69-1.763,2.324,2.324,0,0,1-.762-1.974,2.78,2.78,0,0,0-.367-1.251c-1.969-3.112-4.029-6.164-5.935-9.309a28.957,28.957,0,0,1-1.808-4.113.98.98,0,0,1,.381-1.307.929.929,0,0,1,1.419.61,16.665,16.665,0,0,0,2.6,5.3c1.707,2.613,3.365,5.259,5.078,7.868a3.081,3.081,0,0,1,.6,2.046,3.6,3.6,0,0,0,.11.824l.262-.033c-.2-3.427-.4-6.854-.6-10.365-.445,0-.85.022-1.25,0a2.936,2.936,0,0,1-.381-5.806,2.822,2.822,0,0,1,3.275,2.069,14.585,14.585,0,0,1,.226,1.765h3.334c.036-.379.076-.758.109-1.138a2.846,2.846,0,0,1,2.931-2.736,2.931,2.931,0,0,1-.009,5.849c-.364.017-.729,0-1.174,0-.205,3.5-.409,6.968-.612,10.431l.24.072c.1-.24.3-.491.271-.715a3.807,3.807,0,0,1,.845-2.624c1.958-2.989,3.87-6.009,5.808-9.012a11.937,11.937,0,1,0-21.865-7.919c-.014.107-.028.214-.052.319a.952.952,0,0,1-1.112.827.867.867,0,0,1-.776-1.07,20.055,20.055,0,0,1,1.034-4.041,13.528,13.528,0,0,1,11.033-8.373,2.475,2.475,0,0,0,.359-.114Zm-3.008,22.249c.209,3.525.412,6.976.617,10.433h1.941c.2-3.491.405-6.956.608-10.433Zm-.215,12.429c-.234,1.277-.079,2.051.472,2.4a4.365,4.365,0,0,0,2.868-.062c.753-.669.384-1.534.471-2.341Zm-1.838-14.432c-.031-.384-.055-.721-.088-1.055a.847.847,0,0,0-.914-.862.861.861,0,0,0-.914.805.914.914,0,0,0,.727,1.107A8.467,8.467,0,0,0,236.366,224.246Zm7.288.05a7.727,7.727,0,0,0,1.253-.09.878.878,0,0,0,.646-1.1.848.848,0,0,0-.927-.788.839.839,0,0,0-.888.824C243.7,223.5,243.686,223.855,243.655,224.3Z" transform="translate(-210.013 -204)"/>
    <path id="Path_1392" data-name="Path 1392" d="M206.759,449.882h5.1c.76,0,1.207.355,1.217.941s-.44.991-1.179.993H201.5c-.5,0-.958-.172-1.034-.674a1.5,1.5,0,0,1,.3-1.034c.141-.183.541-.226.827-.229C203.311,449.872,205.035,449.882,206.759,449.882Z" transform="translate(-188.661 -407.492)"/>
    <path id="Path_1393" data-name="Path 1393" d="M345.407,449.9h5.171c.777,0,1.186.345,1.186.958s-.424.976-1.183.976H340.308c-.786,0-1.251-.391-1.231-1.005.019-.586.462-.929,1.227-.931C342,449.9,343.705,449.9,345.407,449.9Z" transform="translate(-303.382 -407.509)"/>
    <path id="Path_1394" data-name="Path 1394" d="M206.4,424.311h-5.171c-.772,0-1.181-.355-1.174-.976s.434-.964,1.207-.965h10.272c.8,0,1.289.455,1.207,1.086a1,1,0,0,1-1.108.853C209.884,424.318,208.143,424.311,206.4,424.311Z" transform="translate(-188.321 -384.727)"/>
    <path id="Path_1395" data-name="Path 1395" d="M345.4,424.3h-5.1c-.8,0-1.26-.379-1.243-.986s.464-.955,1.22-.957h10.274c.764,0,1.189.36,1.195.967s-.4.971-1.174.974C348.851,424.308,347.127,424.3,345.4,424.3Z" transform="translate(-303.366 -384.719)"/>
    <path id="Path_1396" data-name="Path 1396" d="M206.39,479.2H201.48a3.84,3.84,0,0,1-.581-.021.862.862,0,0,1-.8-.862.878.878,0,0,1,.724-1,3,3,0,0,1,.705-.055h9.826a3.18,3.18,0,0,1,.641.041.945.945,0,0,1-.105,1.881c-.364.029-.731.016-1.1.016Z" transform="translate(-188.357 -430.16)"/>
    <path id="Path_1397" data-name="Path 1397" d="M345.4,479.189h-5.1c-.8,0-1.258-.374-1.243-.983s.46-.95,1.224-.952q5.135-.01,10.271,0c.777,0,1.189.353,1.195.965s-.393.964-1.177.967C348.848,479.195,347.126,479.189,345.4,479.189Z" transform="translate(-303.367 -430.146)"/>
    <path id="Path_1398" data-name="Path 1398" d="M195.545,395.706h-4.522c-.764,0-1.207-.345-1.226-.936s.443-1,1.231-1h9.043c.767,0,1.207.345,1.222.94.019.621-.434.995-1.227,1Z" transform="translate(-179.836 -361.057)"/>
    <path id="Path_1399" data-name="Path 1399" d="M361.967,395.706h-4.522c-.748,0-1.189-.371-1.186-.971s.445-.964,1.2-.965h9.109c.745,0,1.195.381,1.191.976s-.45.958-1.207.96Z" transform="translate(-317.603 -361.057)"/>
    <path id="Path_1400" data-name="Path 1400" d="M403.14,225.415a1.034,1.034,0,0,1,.076,1.379,1.464,1.464,0,0,1-.109.121c-.643.6-1.308,1.184-1.984,1.75a.952.952,0,0,1-1.431-.057.963.963,0,0,1,.148-1.379,25.29,25.29,0,0,1,2.05-1.772,1.334,1.334,0,0,1,1.058-.159A.5.5,0,0,1,403.14,225.415Z" transform="translate(-353.362 -221.588)"/>
    <path id="Path_1401" data-name="Path 1401" d="M190.4,225.562a1.06,1.06,0,0,1,1.45-.134l.038.029c.645.536,1.272,1.095,1.9,1.658a.98.98,0,1,1-1.286,1.45,24.274,24.274,0,0,1-1.967-1.769,1.245,1.245,0,0,1-.245-1.034A.575.575,0,0,1,190.4,225.562Z" transform="translate(-180.222 -221.547)"/>
    <path id="Path_1402" data-name="Path 1402" d="M192.373,271.017a.862.862,0,0,1,.815.1,1.234,1.234,0,0,1,.376.386,1.007,1.007,0,0,1-.11,1,23.692,23.692,0,0,1-2.367,2.089.838.838,0,0,1-1.207-.214.8.8,0,0,1-.019-1.174c.774-.745,1.6-1.434,2.413-2.131A.344.344,0,0,1,192.373,271.017Z" transform="translate(-179.684 -259.414)"/>
    <path id="Path_1403" data-name="Path 1403" d="M400.38,272.081a1.052,1.052,0,0,1,1.4-.079l.021.015q.988.831,1.943,1.7a.957.957,0,0,1,.2,1.422.986.986,0,0,1-1.482.024,22.32,22.32,0,0,1-1.969-1.767,1.338,1.338,0,0,1-.253-1.089A.547.547,0,0,1,400.38,272.081Z" transform="translate(-353.978 -260.088)"/>
  </g>
</svg>
