<svg xmlns="http://www.w3.org/2000/svg" width="65" height="64.761" viewBox="0 0 65 64.761">
  <g id="Group_10081" data-name="Group 10081" transform="translate(-660 -3428.37)">
    <g id="school" transform="translate(660.009 3428.391)">
      <path id="Path_1404" data-name="Path 1404" d="M145.091,264.523V240.437c-1.9.291-3.775.572-5.628.861-.784.122-1.348-.2-1.438-.832-.084-.568.386-1.035,1.149-1.145l5.955-.852v-.726c0-1.53.034-3.056-.013-4.585a1.664,1.664,0,0,1,1.1-1.724c3.194-1.539,6.365-3.128,9.559-4.665a1.094,1.094,0,0,0,.737-1.167c-.04-2.675-.02-5.349-.014-8.024,0-.94.18-1.158,1.079-1.438a6.909,6.909,0,0,1,4.673.293c.751.295,1.487.633,2.236.929a4.426,4.426,0,0,0,3.031.133c.96-.3,1.485.1,1.49,1.1.011,2,0,4,0,6a1.074,1.074,0,0,1-.839,1.14,6.892,6.892,0,0,1-4.616-.225c-1.03-.383-2.038-.843-3.093-1.129-1.781-.484-1.9-.338-1.9,1.438a.826.826,0,0,0,.581.847c3.27,1.589,6.521,3.214,9.8,4.789a1.556,1.556,0,0,1,1.012,1.618c-.043,1.771-.014,3.543-.014,5.371l10.105,1.424c0-1.337-.009-2.614,0-3.888,0-.741.329-1.12.942-1.163a.948.948,0,0,1,1.109,1.043c.02,1.235.029,2.472,0,3.708-.013.489.137.678.635.7a13.1,13.1,0,0,1,1.664.235,2.042,2.042,0,0,1,1.753,1.932c.023.291.022.584.022.875v21.121h2.409c.505,0,1,.016,1.287.539a1.3,1.3,0,0,1-.241,1.438,11.046,11.046,0,0,0-2.13,5.594,10.121,10.121,0,0,0,1.895,6.336c.111.169.235.329.343.5.6.928.25,1.675-.865,1.686-3.527.031-7.055.022-10.582,0-.786,0-1.21-.433-1.181-1.079s.449-.994,1.267-1h8.754a11.678,11.678,0,0,1-.013-11.883H138.034v11.991H171.7a4.235,4.235,0,0,1,.741.025.944.944,0,0,1,.843,1.046.929.929,0,0,1-.915.978c-.18.016-.359.013-.539.013H133.339a8.012,8.012,0,0,1-8.089-6.207,7.779,7.779,0,0,1,3.106-8.3,1.325,1.325,0,0,0,.635-1.258q-.027-10.785-.013-21.57c0-1.889.649-2.626,2.538-2.9.555-.081,1.105-.194,1.663-.261.76-.093,1.127.165,1.21.809a1.031,1.031,0,0,1-.942,1.233c-.794.146-1.593.268-2.43.408v21.949Zm24.856-23.988c0,1.023.025,1.965-.009,2.9a.988.988,0,0,1-1.558.875,1.565,1.565,0,0,1-.471-1.079c-.036-3.124-.031-6.248-.011-9.372a.866.866,0,0,0-.566-.922q-4.638-2.241-9.248-4.537a1.114,1.114,0,0,0-1.118.022q-4.553,2.25-9.128,4.463a1.01,1.01,0,0,0-.66,1.07q.027,14.831.013,29.668v.773h3.325v-.764c0-3.011-.032-6.023.016-9.034a7.013,7.013,0,0,1,14.022.169c.031,2.966,0,5.932,0,8.9v.719h3.325V249.764a6.018,6.018,0,0,1,.016-.674.913.913,0,0,1,.942-.87.94.94,0,0,1,1.055.748,2.953,2.953,0,0,1,.045.737v14.7h14.119V242.568Zm-7.521,23.871a.9.9,0,0,0,.068-.225c0-3.212.09-6.43-.031-9.638a4.871,4.871,0,0,0-5.781-4.58A4.95,4.95,0,0,0,152.577,255c-.014,2.923,0,5.844,0,8.765v.654Zm-26.58,14.119V266.559c-1.079,0-2.11-.04-3.138,0a6.041,6.041,0,0,0-5.6,5.637,5.8,5.8,0,0,0,4.544,6.081A29.08,29.08,0,0,0,135.846,278.525Zm30.969-58.733a6.363,6.363,0,0,1-1.321-.09c-1.285-.37-2.547-.827-3.832-1.2a23.961,23.961,0,0,0-2.54-.561c-.153-.025-.507.214-.51.34-.038,1.289-.023,2.579-.023,3.848a9.381,9.381,0,0,1,1.835.18c1.309.376,2.59.843,3.881,1.28a4.757,4.757,0,0,0,2.516.316Z" transform="translate(-125.02 -215.88)"/>
      <path id="Path_1405" data-name="Path 1405" d="M259.018,527.833H245c-.85-.016-1.287-.372-1.278-1.039s.451-1.025,1.3-1.025h28.107c.85,0,1.3.372,1.287,1.037s-.473,1.025-1.31,1.026Q266.059,527.837,259.018,527.833Z" transform="translate(-222.39 -470.084)"/>
      <path id="Path_1406" data-name="Path 1406" d="M181.586,406.531c0,1.123.013,2.245,0,3.367-.013.822-.331,1.132-1.159,1.136q-3.365.016-6.732,0c-.807,0-1.167-.34-1.172-1.14q-.025-3.365,0-6.733c0-.827.374-1.186,1.21-1.19q3.333-.022,6.665,0c.843,0,1.181.36,1.192,1.194Q181.584,404.849,181.586,406.531Zm-7,2.392h4.886V404.04c-1.537,0-3.036,0-4.535.013a.462.462,0,0,0-.334.3C174.575,405.873,174.586,407.394,174.586,408.923Z" transform="translate(-163.981 -368.529)"/>
      <path id="Path_1407" data-name="Path 1407" d="M406.967,254.734c-.289.345-.485.791-.787.881a1.648,1.648,0,0,1-1.15-.228,22.357,22.357,0,0,0-3.226-2.006,9.3,9.3,0,0,0-9.854,1.8,1.681,1.681,0,0,1-.958.512,1.479,1.479,0,0,1-.938-.588c-.309-.426-.066-.854.28-1.2a10.71,10.71,0,0,1,4.576-2.73,11.319,11.319,0,0,1,11.369,2.61A6.613,6.613,0,0,1,406.967,254.734Z" transform="translate(-342.304 -244.406)"/>
      <path id="Path_1408" data-name="Path 1408" d="M417.431,276.522c-.013.951-.825,1.438-1.494,1.066a3.242,3.242,0,0,1-.478-.369,5.414,5.414,0,0,0-7.1.038,1.642,1.642,0,0,1-1.123.4.977.977,0,0,1-.415-1.727,7.114,7.114,0,0,1,5.369-2.087,7,7,0,0,1,4.794,2A3.187,3.187,0,0,1,417.431,276.522Z" transform="translate(-355.877 -263.437)"/>
      <path id="Path_1409" data-name="Path 1409" d="M423.148,298.773a3.848,3.848,0,0,1,4.206-.036l.04.025a1.006,1.006,0,1,1-1.228,1.593,1.331,1.331,0,0,0-1.778-.009.974.974,0,0,1-1.438-.138.922.922,0,0,1,.18-1.422Z" transform="translate(-369.196 -283.362)"/>
      <path id="Path_1410" data-name="Path 1410" d="M393.845,411.05H390.61c-.874,0-1.242-.36-1.247-1.224q-.025-3.306,0-6.608c0-.881.359-1.229,1.24-1.235q3.3-.016,6.606,0c.877,0,1.226.347,1.231,1.237q.023,3.3,0,6.608c0,.936-.324,1.219-1.289,1.224C396.047,411.055,394.946,411.05,393.845,411.05Zm2.48-2.092v-4.844H391.5v4.844Z" transform="translate(-341.844 -368.542)"/>
      <path id="Path_1411" data-name="Path 1411" d="M286.037,330.569a4.382,4.382,0,1,1,4.345-4.375,4.314,4.314,0,0,1-4.345,4.375Zm2.274-4.292a2.3,2.3,0,1,0-2.365,2.231A2.3,2.3,0,0,0,288.311,326.276Z" transform="translate(-253.495 -302.782)"/>
    </g>
  </g>
</svg>
