<svg xmlns="http://www.w3.org/2000/svg" width="67.869" height="51" viewBox="0 0 67.869 51">
  <g id="team" transform="translate(0.041 -0.072)">
    <path id="Path_1419" data-name="Path 1419" d="M151.875,250.695c-.085.246-.175.489-.253.737a5.91,5.91,0,0,1-5.793,4.2,1.247,1.247,0,0,0-1.046.4c-.264.29-.649.469-.912.757a1.3,1.3,0,0,0-.333.756c-.007.145.246.375.434.456.951.411,1.93.759,2.878,1.18a6.692,6.692,0,0,1,4.221,6.263c.022.507.016,1.014,0,1.524-.022.724-.41,1.148-1.014,1.159s-.982-.413-1.014-1.137c-.026-.75,0-1.506-.091-2.246a4.381,4.381,0,0,0-2.516-3.51c-1.024-.505-2.113-.883-3.215-1.337a3.349,3.349,0,0,1-2.953,1.833,3.28,3.28,0,0,1-2.953-1.829l-3.23,1.3c.023,2.727.045,5.324.068,7.92v.265c-.033.7-.382,1.089-.975,1.1a1.012,1.012,0,0,1-1.041-1.115c-.019-1.593.007-3.186-.013-4.779a15.89,15.89,0,0,0-.145-2.307,5.6,5.6,0,0,0-2.054-3.607c-1.523-1.195-3.145-2.263-4.772-3.419-.562.746-1.072,1.435-1.593,2.116a1.939,1.939,0,0,1-2.382.779c-.678-.2-1.354-.4-2.027-.6a1.112,1.112,0,0,0-.211,0c-.01.222-.03.452-.03.681v11.069a5.78,5.78,0,0,1-.02.724.99.99,0,0,1-1.929.156,2.834,2.834,0,0,1-.074-.785V257.49c-.8.237-1.515.453-2.233.66a1.957,1.957,0,0,1-2.43-.811c-.505-.666-1-1.338-1.576-2.1-1.707,1.245-3.458,2.371-5.025,3.71a6.04,6.04,0,0,0-1.954,4.762c-.013,1.846,0,3.667,0,5.5,0,.844-.352,1.274-1.005,1.272s-1.021-.453-1.014-1.282c.025-2.251.036-4.5.119-6.753a12.906,12.906,0,0,1,.434-2.094c-1.037-.378-2.085-.768-3.143-1.131-.09-.03-.28.08-.358.178-1.987,2.517-4.345,2.449-6.227-.271-1.062.407-2.152.805-3.228,1.244a1.09,1.09,0,0,1-1.386-.2.969.969,0,0,1,.434-1.574c1.067-.472,2.172-.869,3.264-1.27.911-.34,1.014-.915.261-1.56a6.432,6.432,0,0,1-2.132-3.683,9.464,9.464,0,0,1-1.049-.1,3.139,3.139,0,0,1-2.125-4.634,2.069,2.069,0,0,0,.222-1.448,12.036,12.036,0,0,1-.223-4.4,5.964,5.964,0,0,1,3.738-4.327c.98-.4,1.975-.756,2.96-1.143A8.6,8.6,0,0,1,105,244.563a8.207,8.207,0,0,1-.055.925,3.309,3.309,0,0,0,.337,2.138,3.1,3.1,0,0,1-2.739,4.41.614.614,0,0,0-.7.566,6.271,6.271,0,0,1-2.317,3.45,1.014,1.014,0,0,0-.364.737c.012.181.327.41.553.5,1.15.445,2.317.852,3.531,1.292,1.538-2.09,3.938-3.193,5.98-4.753a2.94,2.94,0,0,0,.569-.811,4.978,4.978,0,0,1,.608-.995c.623-.592,1.322-1.1,1.965-1.674a1.148,1.148,0,0,0,.311-.579,7.059,7.059,0,0,0,.017-.724,1.4,1.4,0,0,0-.6-1.345,8.712,8.712,0,0,1-2.951-5.169c-.224-.045-.456-.093-.689-.136a3.416,3.416,0,0,1-2.271-5.273,1.04,1.04,0,0,0,.127-1.024,13.448,13.448,0,0,1,1.014-10.882,1.031,1.031,0,0,1,1.738-.314,1.092,1.092,0,0,1,0,1.353,10.861,10.861,0,0,0-1.416,5.78,27,27,0,0,0,.445,3c.077.505.339.689.869.478.067-.484.1-1.014.213-1.515a5.9,5.9,0,0,1,5.648-4.634c1.545-.029,3.092,0,4.634-.017a1.409,1.409,0,0,0,.737-.178c1.713-1.159,1.707-1.167,3.49-.041a13.4,13.4,0,0,0-.129-1.541,7,7,0,0,0-6.447-5.635,8.3,8.3,0,0,0-5.2,1.2c-.7.434-1.289.345-1.613-.2s-.119-1.083.579-1.529c4.333-2.752,10.541-1.694,13.3,2.462a1.179,1.179,0,0,0,.692.416,6.737,6.737,0,0,1,5.311,7.515c-.21,1.554-.442,3.1-.634,4.659a1.286,1.286,0,0,0,.175.724,3.423,3.423,0,0,1-2.453,5.2.762.762,0,0,0-.724.671,8.676,8.676,0,0,1-2.985,4.794,1.938,1.938,0,0,0,.07,2.615c.623.494,1.234,1.006,1.815,1.548a1.509,1.509,0,0,1,.524.812,1.517,1.517,0,0,0,.856,1.159c.869.579,1.7,1.186,2.571,1.755a10.074,10.074,0,0,1,3.68,3.667c1.241-.5,2.446-.972,3.641-1.467a.753.753,0,0,0,.072-1.2c-.372-.313-.724-.642-1.119-.925a1.072,1.072,0,0,0-.592-.175,5.886,5.886,0,0,1-6.19-5.315,9.417,9.417,0,0,1,.375-2.849,11.29,11.29,0,0,1,.579-1.4c.482-1.344,1.014-2.676,1.395-4.055a9.413,9.413,0,0,1,18.321.44,17.114,17.114,0,0,0,.744,2.317c.5,1.315,1.04,2.607,1.564,3.917Zm-30.021-20.312c-.812,1.166-2.041.988-3.227.98-1.235-.009-2.471-.019-3.706,0a3.884,3.884,0,0,0-3.874,3.884c-.022,2.007-.033,4.017.009,6.025a6.856,6.856,0,0,0,6.594,6.592,6.766,6.766,0,0,0,7.021-5.878c.209-2.078.11-4.187.13-6.281A6.1,6.1,0,0,0,121.853,230.382ZM146.5,253.561a3.958,3.958,0,0,0,3.254-2.972,4.469,4.469,0,0,0-.332-2.772,38.316,38.316,0,0,1-1.79-4.883,7.565,7.565,0,0,0-7.145-5.91,7.442,7.442,0,0,0-7.309,5.6c-.319,1.251-.788,2.462-1.225,3.689-.261.724-.633,1.411-.883,2.139a3.926,3.926,0,0,0,2.394,4.946c.232.083.478.127.752.2a8.121,8.121,0,0,1-.259-1.331c-.039-2.14-.1-4.282-.039-6.42a6.493,6.493,0,0,1,1.3-3.561,1.563,1.563,0,0,1,2.617-.387,5.81,5.81,0,0,0,3.55,1.266c1.237.02,2.474.062,3.709.11a1.711,1.711,0,0,1,1.751,1.771c.019.773.012,1.547,0,2.317-.009.746-.421,1.219-1.028,1.2s-.973-.471-.983-1.182c-.009-.679,0-1.358,0-2.069-1.448-.059-2.837-.081-4.219-.18a7.849,7.849,0,0,1-3.946-1.557,7.255,7.255,0,0,0-.653,1.93,60.043,60.043,0,0,0,0,6.676,4.194,4.194,0,0,0,3.758,3.558c2.575.278,4.531-1.263,5.043-3.971.135-.714.546-1.056,1.167-.967a1.023,1.023,0,0,1,.824,1.289C146.733,252.563,146.618,253.031,146.5,253.561Zm-57.763-7.9c.655.165.909-.013,1.038-.652a6.775,6.775,0,0,1,.782-1.948c.647-1.147,1.426-1.28,2.505-.494a8.169,8.169,0,0,0,5,1.634c.75-.007,1.5-.012,2.25,0a1.565,1.565,0,0,1,1.573,1c.2.542.507.571,1.005.434a15.626,15.626,0,0,0-.025-2.818,6.539,6.539,0,0,0-9.022-4.862c-.94.375-1.891.724-2.834,1.091a3.935,3.935,0,0,0-2.487,2.727C88.157,243.1,88.611,244.382,88.736,245.659Zm3.293-1.364a12.131,12.131,0,0,0-.39,1.936c-.049,1.652-.083,3.312,0,4.962A4.147,4.147,0,0,0,95.49,255.2a4.019,4.019,0,0,0,4.442-3.461,49.054,49.054,0,0,0,.042-5.55A11.47,11.47,0,0,1,92.029,244.3Zm33.477-17.71a2.194,2.194,0,0,0,0,.356,9.248,9.248,0,0,1,.013,3.746.843.843,0,0,0,.055.569,8.584,8.584,0,0,1,1.28,4.284h.792c.2-1.547.521-3.07.579-4.6A4.643,4.643,0,0,0,125.506,226.585ZM124,253.423c-.471-.4-.879-.768-1.315-1.1a.537.537,0,0,0-.461-.07c-1.014.477-2.027.962-3.028,1.482-.547.29-.229.834-.252,1.257-.009.158.262.416.458.487.7.255,1.422.465,2.148.65a.623.623,0,0,0,.532-.161C122.722,255.157,123.333,254.32,124,253.423Zm-12.165,0c.65.869,1.27,1.723,1.925,2.55a.629.629,0,0,0,.537.156c.7-.18,1.4-.388,2.083-.634.2-.072.5-.317.485-.463-.033-.459.321-1.041-.31-1.356-.947-.471-1.893-.943-2.852-1.383a.676.676,0,0,0-.579.042c-.443.327-.843.707-1.293,1.092Zm2.986-4.094c-.211,1.135-.211,1.16.657,1.57a6.649,6.649,0,0,0,2.445,1.057,6.694,6.694,0,0,0,2.445-1.064c.86-.413.9-.523.63-1.558a8.824,8.824,0,0,1-6.181,0Zm-17.771,7.843H94.338a1.661,1.661,0,0,0,.55,1.738,1.292,1.292,0,0,0,1.493.075A1.625,1.625,0,0,0,97.053,257.173Zm42.034.6c-.081.656-.145,1.353.53,1.693a1.625,1.625,0,0,0,1.28.009c.675-.335.627-1.033.537-1.7Zm-30.092-20.15a1.373,1.373,0,0,0-1.371,1.483,1.238,1.238,0,0,0,1.371,1.19Zm17.865,2.72a1.334,1.334,0,0,0,1.348-1.37,1.353,1.353,0,0,0-1.348-1.354ZM102.1,249.992c.592.094,1.092-.045,1.267-.543a1.8,1.8,0,0,0-.054-1.219.95.95,0,0,0-1.214-.426Zm-12.543-2.2c-.579-.113-1.073.022-1.248.526a1.8,1.8,0,0,0,.062,1.222.939.939,0,0,0,1.186.434Z" transform="translate(-84.047 -219.82)"/>
    <path id="Path_1420" data-name="Path 1420" d="M71.728,511.248q.035-.335.1-.665a10.152,10.152,0,0,1,.62-1.883.993.993,0,1,1,1.82.8,8.45,8.45,0,0,0-.6,3.885c.013.507-.012,1.014,0,1.523.02.562-.045,1.088-.64,1.324a.93.93,0,0,1-.769-.009,1.081,1.081,0,0,1-.6-.986v-2.578A13.462,13.462,0,0,1,71.728,511.248Z" transform="translate(-71.7 -466.276)"/>
    <path id="Path_1421" data-name="Path 1421" d="M232.575,518.514c0-.817-.009-1.634,0-2.449.01-.705.411-1.15,1-1.146a1.033,1.033,0,0,1,1.007,1.159q.019,2.45,0,4.9c0,.746-.423,1.19-1.051,1.169-.6-.02-.953-.434-.962-1.179C232.567,520.145,232.575,519.33,232.575,518.514Z" transform="translate(-209.309 -472.122)"/>
    <path id="Path_1422" data-name="Path 1422" d="M365.211,518.516c0-.795-.007-1.593,0-2.382.009-.76.4-1.214,1.014-1.2s1,.463,1.014,1.225q.015,2.416,0,4.831c0,.724-.4,1.159-.993,1.159-.631.013-1.014-.419-1.021-1.186C365.2,520.153,365.211,519.332,365.211,518.516Z" transform="translate(-322.737 -472.13)"/>
  </g>
</svg>
