<svg xmlns="http://www.w3.org/2000/svg" width="65" height="60.938" viewBox="0 0 65 60.938">
  <g id="growth" transform="translate(0.003 0)">
    <path id="Path_1385" data-name="Path 1385" d="M102.9,359.669c.2-.48.916-.621,1.373-.592.352.022.707,0,1.136,0V325.725a6.209,6.209,0,0,1,5.174-6.342,7.539,7.539,0,0,1,1.326-.085h14.837a4.553,4.553,0,0,1,.507.012.9.9,0,0,1,.845.878.874.874,0,0,1-.649.971,2.753,2.753,0,0,1-.812.081H111.989a4.314,4.314,0,0,0-4.648,4.672v33.166h.943c6.53,0,13.062.014,19.592-.012a2.734,2.734,0,0,1,2.536,1.229,1.7,1.7,0,0,0,1.2.648c2.45.061,4.9.032,7.354.029a1.385,1.385,0,0,0,1.266-.71,2.414,2.414,0,0,1,2.34-1.194c6.616.02,13.231.01,19.845.01h.945v-33.22a4.3,4.3,0,0,0-4.584-4.609c-.676,0-1.353.009-2.029,0a1,1,0,0,1-1.118-.957c-.014-.566.423-.986,1.14-.981a21.883,21.883,0,0,1,3.351.1,6.146,6.146,0,0,1,5.179,6.326q.01,16.232,0,32.464v.8c0,.112,1.2.074,1.312.079.592.022,1.206.264,1.219.938.008.414-.017.832-.017,1.246a9.721,9.721,0,0,1-.135,2.335,6.709,6.709,0,0,1-.925,2.029,6.557,6.557,0,0,1-1.943,1.928,6.349,6.349,0,0,1-3.41,1q-26.053.019-52.1,0a6.308,6.308,0,0,1-4.266-1.671,6.482,6.482,0,0,1-1.833-2.749,15.525,15.525,0,0,1-.352-3.889,1.75,1.75,0,0,1,0-.441A.7.7,0,0,1,102.9,359.669Zm62.942,1.414c-.159-.012-.284-.032-.409-.032q-11.44,0-22.882.015a1.106,1.106,0,0,0-.751.407,3.48,3.48,0,0,1-2.874,1.471q-3.612.027-7.225,0a3.267,3.267,0,0,1-2.864-1.471.932.932,0,0,0-.893-.431q-11.219.012-22.438,0c-.222,0-.443.025-.653.037-.221,3.4,1.7,5.536,4.924,5.536h51.278A4.647,4.647,0,0,0,165.839,361.083Z" transform="translate(-102.84 -307.628)"/>
    <path id="Path_1386" data-name="Path 1386" d="M178.464,345.814V330.569a3.958,3.958,0,0,1,.014-.634.963.963,0,0,1,1.909,0,3.769,3.769,0,0,1,.015.634v15.191h4.023v-.7q0-17.059.012-34.115c0-.619-.169-.812-.781-.778a18.854,18.854,0,0,1-2.472,0c-.676-.051-.8.21-.795.83.024,4.777.014,9.553.014,14.33v.507c-.015.676-.375,1.109-.942,1.126s-.991-.424-.993-1.138V310.485a2.114,2.114,0,0,1,2.218-2.242c1.119-.019,2.239-.012,3.36,0a2.143,2.143,0,0,1,2.316,2.338v35.18h5.544v-.676q0-14.107.014-28.217c0-.622-.186-.817-.79-.769a17.078,17.078,0,0,1-1.838,0,.983.983,0,0,1-1.057-1.015.971.971,0,0,1,1.069-.927c.783-.014,1.564-.019,2.347,0a2.136,2.136,0,0,1,2.19,2.215c.012,1.226,0,2.452,0,3.678v26.262c0,1.216-.26,1.474-1.5,1.474H143.592c-1.277,0-1.522-.247-1.522-1.512V316.726c0-1.757.8-2.563,2.546-2.565h14.71a4.194,4.194,0,0,1,.507.015.959.959,0,0,1,.127,1.89,2.761,2.761,0,0,1-.692.042q-7.291,0-14.582-.008c-.521,0-.688.145-.686.676q.02,14.234.01,28.47v.507h4.114V342.9c0-.7-.01-1.395,0-2.093a.992.992,0,0,1,.969-1.1,1.012,1.012,0,0,1,.974,1.109c.015,1.542,0,3.086.01,4.63,0,.083.017.169.032.311h3.916v-14.4h-3.913c-.014.235-.037.458-.037.676v4.185a2.34,2.34,0,0,1-.039.566.912.912,0,0,1-1.006.771.855.855,0,0,1-.888-.891c-.019-1.818-.037-3.635.017-5.451a1.941,1.941,0,0,1,1.877-1.816c1.353-.041,2.705-.046,4.058,0a2.089,2.089,0,0,1,1.941,2.31q.01,5.833,0,11.667v2.42c.668,0,1.273.015,1.875-.014.1,0,.25-.186.286-.313a2.1,2.1,0,0,0,.019-.566V327.918c0-1.885.774-2.66,2.651-2.663h2.788a2.2,2.2,0,0,1,2.494,2.5v16.995c0,1.209-.154,1.048,1.094,1.065h1.087V322.565c0-1.814.764-2.58,2.58-2.584h2.915a2.133,2.133,0,0,1,2.413,2.418v22.574c0,.845,0,.845.866.845Zm-4.217-.041V321.932c-1.094,0-2.147.035-3.2-.014-.607-.027-.781.159-.779.773q.027,11.188.012,22.378v.7ZM164.171,336.6q0-4.37.008-8.742c0-.456-.117-.644-.6-.629-.95.032-1.9.024-2.851,0-.418-.01-.543.156-.543.558q.014,8.742,0,17.485c0,.4.12.565.539.555.928-.024,1.86-.036,2.787,0,.533.024.676-.161.676-.676C164.159,342.292,164.171,339.441,164.171,336.6Z" transform="translate(-135.439 -298.435)"/>
    <path id="Path_1387" data-name="Path 1387" d="M255.492,256.7l-3.59-4.124-3.62,4.148c.225.02.32.034.416.036,1.447.024,1.846.421,1.848,1.86,0,.7.01,1.395,0,2.092a1.02,1.02,0,0,1-1.014,1.135c-.583-.019-.922-.44-.933-1.131-.012-.631,0-1.261,0-2h-1.476a1.379,1.379,0,0,1-1.429-.845,1.359,1.359,0,0,1,.355-1.562c1.574-1.8,3.135-3.6,4.714-5.39a1.351,1.351,0,0,1,2.271-.017c1.591,1.806,3.165,3.629,4.755,5.439a1.377,1.377,0,0,1-1.091,2.369h-1.464v10.115c0,1.493-.577,2.068-2.065,2.07-.95,0-1.9.008-2.852,0a1.593,1.593,0,0,1-1.711-1.691c-.019-1.373-.014-2.748,0-4.121,0-.7.364-1.1.947-1.1s.987.418,1,1.138c.012,1.035,0,2.07,0,3.1v.717c.233.012.4.025.561.025h2.166v-.8c0-3.148.037-6.3-.017-9.445-.027-1.532.622-2.1,1.933-1.961A1.522,1.522,0,0,0,255.492,256.7Z" transform="translate(-221.442 -250.29)"/>
    <path id="Path_1388" data-name="Path 1388" d="M316.462,321.236c-.57,0-1.141.012-1.709,0a.976.976,0,0,1-1.082-.982c0-.583.391-.949,1.091-.955q1.677-.017,3.356,0a.959.959,0,0,1,1.057.932,1,1,0,0,1-1.067,1C317.559,321.25,317.009,321.234,316.462,321.236Z" transform="translate(-278.024 -307.623)"/>
    <path id="Path_1389" data-name="Path 1389" d="M316.454,343.287c.572,0,1.141-.015,1.711,0a.981.981,0,0,1,1.014.92.959.959,0,0,1-.989,1.014q-1.774.036-3.551,0a.966.966,0,1,1,.044-1.931C315.272,343.272,315.864,343.287,316.454,343.287Z" transform="translate(-278.023 -327.557)"/>
  </g>
</svg>
